<svg width="574.1199951" height="76.7900009" viewBox="0 0 574.1199951 76.7900009" xmlns="http://www.w3.org/2000/svg">
    <defs/>
    <g enable-background="new 0 0 574.1199951 76.7900009">
        <path fill="#000000" stroke="none" d="M 372.1004028 32.3515015 L 380.6560058 32.3515015 C 389.009613 32.3515015 394.6803893 27.4403992 394.6803893 20.6054001 C 394.6803893 13.7705002 390.2752074 9.3154001 381.6687011 9.3154001 C 373.5681152 9.3154001 367.6950988 13.6190996 367.1384887 20.9092006 L 356.5065917 20.9092006 C 357.4177856 8.1513004 367.3913879 0 381.6687012 0 C 396.5534973 0 405.7175904 8.1513004 405.7175904 19.0361004 C 405.7175904 28.2001991 399.2878724 34.3260994 390.3259888 36.1991997 L 390.3259888 36.4520989 C 401.0593872 37.4140015 408.2488098 43.9453011 408.2488098 54.1727982 C 408.2488098 67.0322037 397.009613 75.7910004 381.7702942 75.7910004 C 366.1257935 75.7910004 355.6452942 67.1337967 354.9372864 54.5770989 L 365.8221131 54.5770989 C 366.3786927 61.7158013 372.6062012 66.3231965 381.7702943 66.3231965 C 390.6803895 66.3231965 396.6550904 61.2607003 396.7058107 54.1727982 C 396.7556154 45.8182984 390.7312013 41.1610985 380.9596864 41.1610985 L 372.100403 41.1610985 L 372.100403 32.3515015 Z"/>
        <path fill="#000000" stroke="none" d="M 0 7.0881 C 0 3.5948999 2.8349972 0.8098 6.3281999 0.8098 C 9.8223 0.8098 12.6572962 3.5949 12.6572962 7.0880998 C 12.6572962 10.5305003 9.8223 13.3654002 6.3281999 13.3654002 C 2.8349972 13.3654003 0 10.5305004 0 7.0881 Z M 0.8604 21.1623001 L 11.7958954 21.1623001 L 11.7958954 74.4240036 L 0.8604 74.4240036 L 0.8604 21.1623001 Z"/>
        <path fill="#000000" stroke="none" d="M 51.6944008 1.3664 C 65.8701019 1.3664 75.7422028 11.1379006 75.7422028 25.3645003 C 75.7422028 39.6418002 65.6679993 49.4641001 51.3398934 49.4641001 L 35.6445961 49.4641001 L 35.6445961 74.4240038 L 24.3036995 74.4240038 L 24.3036995 1.3664 L 51.6944008 1.3664 Z M 35.6445961 39.9454994 L 48.6562996 39.9454994 C 58.5293007 39.9454994 64.1484909 34.6301002 64.1484909 25.4151993 C 64.1484909 16.2014008 58.5293007 10.9357004 48.7070961 10.9357004 L 35.6445961 10.9357004 L 35.6445961 39.9454994 Z"/>
        <path fill="#000000" stroke="none" d="M 83.5175934 1.3664 L 94.3526001 1.3664 L 94.3526001 30.0734007 L 94.6054993 30.0734007 C 97.5419998 23.8458998 103.364296 20.2511999 111.4648972 20.2511999 C 123.1602021 20.2511999 130.1464997 28.0480005 130.1464997 40.0979006 L 130.1464997 74.4240038 L 119.160202 74.4240038 L 119.160202 42.2238007 C 119.160202 34.3771019 115.2109909 29.6681996 107.5157013 29.6681996 C 99.4151001 29.6681996 94.4532013 35.2374993 94.4532013 43.6418 L 94.4532013 74.4240037 L 83.5175934 74.4240037 L 83.5175934 1.3664 Z"/>
        <path fill="#000000" stroke="none" d="M 137.7861938 47.7932014 C 137.7861938 30.6809005 147.8614044 20.2003994 163.0498046 20.2003994 C 178.2382964 20.2003994 188.313507 30.6809006 188.313507 47.7932014 C 188.313507 64.9561996 178.2890929 75.4366989 163.0498046 75.4366989 C 147.8105927 75.4366989 137.7861938 64.9561996 137.7861938 47.7932014 Z M 177.1748047 47.7932014 C 177.1748047 35.9972991 171.6054993 29.2131004 163.0498047 29.2131004 C 154.4931946 29.2131004 148.9239044 35.9972992 148.9239044 47.7932014 C 148.9239044 59.6408004 154.4931946 66.425003 163.0498047 66.425003 C 171.6562958 66.4250031 177.1748047 59.6408005 177.1748047 47.7932014 Z"/>
        <path fill="#000000" stroke="none" d="M 196.4629059 21.1623001 L 206.8925934 21.1623001 L 206.8925934 30.0734005 L 207.1454926 30.0734005 C 210.0312958 23.9981995 215.7021943 20.2511997 223.9042969 20.2511997 C 235.6493988 20.2511997 242.3837891 27.7443008 242.3837891 39.9454994 L 242.3837891 74.4240036 L 231.3964844 74.4240036 L 231.3964844 42.0724983 C 231.3964844 34.0733986 227.6504059 29.6681995 220.0556946 29.6681995 C 212.3603974 29.6681995 207.3993988 35.1358986 207.3993988 43.3889007 L 207.3993988 74.4240035 L 196.4629059 74.4240035 L 196.4629059 21.1623001 Z"/>
        <path fill="#000000" stroke="none" d="M 298.069397 58.7794991 C 296.5508118 68.5001984 287.3359986 75.436699 275.1347962 75.436699 C 259.4902955 75.436699 250.0234986 64.8556977 250.0234986 48.0461007 C 250.0234986 31.3391 259.6426087 20.2003995 274.6796876 20.2003995 C 289.4628907 20.2003995 298.6767884 30.6301004 298.6767884 46.7804986 L 298.6767884 50.5275002 L 261.060608 50.5275002 L 261.060608 51.1856995 C 261.060608 60.4504013 266.6289063 66.5764008 275.3876954 66.5764008 C 281.6152955 66.5764008 286.2226869 63.4376984 287.6904908 58.7794991 L 298.069397 58.7794991 Z M 261.1104126 42.882 L 287.7412109 42.882 C 287.4883117 34.7316017 282.3241882 29.0100003 274.6796875 29.0100003 C 267.0341797 29.0100002 261.6679993 34.8321991 261.1104126 42.882 Z"/>
        <path fill="#000000" stroke="none" d="M 460.5625 1.3664 C 474.7381897 1.3664 484.6102905 11.1379006 484.6102905 25.3645003 C 484.6102905 39.6418002 474.5361023 49.4641001 460.2080078 49.4641001 L 444.5125732 49.4641001 L 444.5125732 74.4240038 L 433.171814 74.4240038 L 433.171814 1.3664 L 460.5625 1.3664 Z M 444.5125732 39.9454994 L 457.5243835 39.9454994 C 467.3973693 39.9454994 473.0166015 34.6301002 473.0166015 25.4151993 C 473.0166015 16.2014008 467.3973693 10.9357004 457.5750732 10.9357004 L 444.5125732 10.9357004 L 444.5125732 39.9454994 Z"/>
        <path fill="#000000" stroke="none" d="M 493.2246094 21.1623001 L 503.6542053 21.1623001 L 503.6542053 30.2248001 L 503.907196 30.2248001 C 505.6795959 23.9981995 510.438385 20.302 516.7166748 20.302 C 518.2860718 20.302 519.6532593 20.5548992 520.4628296 20.7071991 L 520.4628296 30.8829994 C 519.602478 30.5284996 517.6787109 30.2756004 515.5516968 30.2756004 C 508.5145874 30.2756004 504.1611023 34.9846 504.1611023 42.5275001 L 504.1611023 74.4240035 L 493.2246094 74.4240035 L 493.2246094 21.1623001 Z"/>
        <path fill="#000000" stroke="none" d="M 522.593689 47.7932014 C 522.593689 30.6809005 532.6688843 20.2003994 547.8574219 20.2003994 C 563.0458985 20.2003994 573.1209717 30.6809006 573.1209717 47.7932014 C 573.1209717 64.9561996 563.0966187 75.4366989 547.8574219 75.4366989 C 532.618103 75.4366989 522.593689 64.9561996 522.593689 47.7932014 Z M 561.9824219 47.7932014 C 561.9824219 35.9972991 556.4130249 29.2131004 547.8574219 29.2131004 C 539.3006592 29.2131004 533.7313843 35.9972992 533.7313843 47.7932014 C 533.7313843 59.6408004 539.3006592 66.425003 547.8574219 66.425003 C 556.4638062 66.4250031 561.9824219 59.6408005 561.9824219 47.7932014 Z"/>
        <path fill="#000000" stroke="none" d="M 332.6238098 1.4125 L 317.6710815 11.7586002 L 317.6710815 22.9160004 L 332.581604 12.3219004 L 332.7239075 12.3219004 L 332.7239075 74.4240036 L 343.6933899 74.4240036 L 343.6933899 1.4125 Z"/>
    </g>
</svg>
